<mxfile host="65bd71144e">
    <diagram id="YKHQ0pB_pxWImXlGkiRA" name="flowchart-gpcheck">
        <mxGraphModel dx="1460" dy="1155" grid="1" gridSize="10" guides="1" tooltips="1" connect="1" arrows="1" fold="1" page="1" pageScale="1" pageWidth="1100" pageHeight="850" math="0" shadow="0">
            <root>
                <mxCell id="0"/>
                <mxCell id="1" parent="0"/>
                <mxCell id="16" value="" style="edgeStyle=none;html=1;fontSize=20;" edge="1" parent="1" source="2" target="5">
                    <mxGeometry relative="1" as="geometry"/>
                </mxCell>
                <mxCell id="2" value="&lt;font style=&quot;font-size: 20px&quot;&gt;start&lt;/font&gt;" style="strokeWidth=2;html=1;shape=mxgraph.flowchart.terminator;whiteSpace=wrap;fontSize=20;" vertex="1" parent="1">
                    <mxGeometry x="590" y="10" width="100" height="60" as="geometry"/>
                </mxCell>
                <mxCell id="18" value="" style="edgeStyle=none;html=1;fontSize=20;entryX=0.462;entryY=-0.013;entryDx=0;entryDy=0;entryPerimeter=0;" edge="1" parent="1" source="3" target="6">
                    <mxGeometry relative="1" as="geometry">
                        <Array as="points">
                            <mxPoint x="340" y="260"/>
                        </Array>
                    </mxGeometry>
                </mxCell>
                <mxCell id="23" style="edgeStyle=none;html=1;entryX=0.5;entryY=0;entryDx=0;entryDy=0;fontSize=20;" edge="1" parent="1" source="3" target="14">
                    <mxGeometry relative="1" as="geometry">
                        <Array as="points">
                            <mxPoint x="930" y="260"/>
                        </Array>
                    </mxGeometry>
                </mxCell>
                <mxCell id="3" value="&lt;font style=&quot;font-size: 20px&quot;&gt;Student or Teacher&lt;/font&gt;" style="strokeWidth=2;html=1;shape=mxgraph.flowchart.decision;whiteSpace=wrap;fontSize=20;" vertex="1" parent="1">
                    <mxGeometry x="540" y="210" width="200" height="100" as="geometry"/>
                </mxCell>
                <mxCell id="17" value="" style="edgeStyle=none;html=1;fontSize=20;" edge="1" parent="1" source="5" target="3">
                    <mxGeometry relative="1" as="geometry"/>
                </mxCell>
                <mxCell id="5" value="&lt;font style=&quot;font-size: 20px;&quot;&gt;Login&lt;/font&gt;" style="rounded=0;whiteSpace=wrap;html=1;fontSize=20;" vertex="1" parent="1">
                    <mxGeometry x="580" y="110" width="120" height="60" as="geometry"/>
                </mxCell>
                <mxCell id="19" value="" style="edgeStyle=none;html=1;fontSize=20;" edge="1" parent="1" source="6" target="7">
                    <mxGeometry relative="1" as="geometry"/>
                </mxCell>
                <mxCell id="6" value="Select room" style="rounded=0;whiteSpace=wrap;html=1;fontSize=20;" vertex="1" parent="1">
                    <mxGeometry x="260" y="290" width="180" height="60" as="geometry"/>
                </mxCell>
                <mxCell id="20" value="" style="edgeStyle=none;html=1;fontSize=20;" edge="1" parent="1" source="7" target="9">
                    <mxGeometry relative="1" as="geometry"/>
                </mxCell>
                <mxCell id="7" value="Checking" style="rounded=0;whiteSpace=wrap;html=1;fontSize=20;" vertex="1" parent="1">
                    <mxGeometry x="260" y="420" width="180" height="60" as="geometry"/>
                </mxCell>
                <mxCell id="21" style="edgeStyle=none;html=1;entryX=0.5;entryY=0;entryDx=0;entryDy=0;fontSize=20;" edge="1" parent="1" source="9" target="11">
                    <mxGeometry relative="1" as="geometry">
                        <Array as="points">
                            <mxPoint x="565" y="610"/>
                        </Array>
                    </mxGeometry>
                </mxCell>
                <mxCell id="22" style="edgeStyle=none;html=1;entryX=0.5;entryY=0;entryDx=0;entryDy=0;entryPerimeter=0;fontSize=20;" edge="1" parent="1" source="9">
                    <mxGeometry relative="1" as="geometry">
                        <mxPoint x="120" y="685" as="targetPoint"/>
                        <Array as="points">
                            <mxPoint x="120" y="610"/>
                        </Array>
                    </mxGeometry>
                </mxCell>
                <mxCell id="9" value="Distance 50 m" style="rhombus;whiteSpace=wrap;html=1;fontSize=20;" vertex="1" parent="1">
                    <mxGeometry x="255" y="540" width="190" height="140" as="geometry"/>
                </mxCell>
                <mxCell id="25" style="edgeStyle=none;html=1;entryX=1;entryY=0.25;entryDx=0;entryDy=0;fontSize=20;exitX=1;exitY=0.5;exitDx=0;exitDy=0;" edge="1" parent="1" source="11" target="7">
                    <mxGeometry relative="1" as="geometry">
                        <Array as="points">
                            <mxPoint x="700" y="730"/>
                            <mxPoint x="700" y="440"/>
                        </Array>
                    </mxGeometry>
                </mxCell>
                <mxCell id="11" value="not check" style="rounded=0;whiteSpace=wrap;html=1;fontSize=20;" vertex="1" parent="1">
                    <mxGeometry x="480" y="700" width="170" height="60" as="geometry"/>
                </mxCell>
                <mxCell id="27" style="edgeStyle=none;html=1;entryX=0;entryY=0.5;entryDx=0;entryDy=0;entryPerimeter=0;fontSize=20;" edge="1" parent="1" target="26">
                    <mxGeometry relative="1" as="geometry">
                        <mxPoint x="120" y="775" as="sourcePoint"/>
                        <Array as="points">
                            <mxPoint x="120" y="930"/>
                        </Array>
                    </mxGeometry>
                </mxCell>
                <mxCell id="13" value="Checked" style="strokeWidth=2;html=1;shape=mxgraph.flowchart.display;whiteSpace=wrap;fontSize=20;" vertex="1" parent="1">
                    <mxGeometry x="20" y="685" width="200" height="90" as="geometry"/>
                </mxCell>
                <mxCell id="24" style="edgeStyle=none;html=1;fontSize=20;" edge="1" parent="1" source="14" target="15">
                    <mxGeometry relative="1" as="geometry"/>
                </mxCell>
                <mxCell id="14" value="Create room" style="rounded=0;whiteSpace=wrap;html=1;fontSize=20;" vertex="1" parent="1">
                    <mxGeometry x="840" y="290" width="180" height="60" as="geometry"/>
                </mxCell>
                <mxCell id="28" style="edgeStyle=none;html=1;entryX=1;entryY=0.5;entryDx=0;entryDy=0;entryPerimeter=0;fontSize=20;" edge="1" parent="1" source="15" target="26">
                    <mxGeometry relative="1" as="geometry">
                        <Array as="points">
                            <mxPoint x="925" y="930"/>
                        </Array>
                    </mxGeometry>
                </mxCell>
                <mxCell id="15" value="Student's name checked" style="strokeWidth=2;html=1;shape=mxgraph.flowchart.display;whiteSpace=wrap;fontSize=20;" vertex="1" parent="1">
                    <mxGeometry x="820" y="400" width="210" height="100" as="geometry"/>
                </mxCell>
                <mxCell id="26" value="End" style="strokeWidth=2;html=1;shape=mxgraph.flowchart.terminator;whiteSpace=wrap;fontSize=20;" vertex="1" parent="1">
                    <mxGeometry x="590" y="900" width="100" height="60" as="geometry"/>
                </mxCell>
                <mxCell id="29" value="Student" style="text;html=1;strokeColor=none;fillColor=none;align=center;verticalAlign=middle;whiteSpace=wrap;rounded=0;fontSize=20;" vertex="1" parent="1">
                    <mxGeometry x="430" y="240" width="60" height="30" as="geometry"/>
                </mxCell>
                <mxCell id="31" value="Teacher" style="text;html=1;strokeColor=none;fillColor=none;align=center;verticalAlign=middle;whiteSpace=wrap;rounded=0;fontSize=20;" vertex="1" parent="1">
                    <mxGeometry x="770" y="240" width="60" height="30" as="geometry"/>
                </mxCell>
                <mxCell id="32" value="Distance &amp;lt; 50m" style="text;html=1;strokeColor=none;fillColor=none;align=center;verticalAlign=middle;whiteSpace=wrap;rounded=0;fontSize=20;" vertex="1" parent="1">
                    <mxGeometry x="90" y="580" width="180" height="30" as="geometry"/>
                </mxCell>
                <mxCell id="35" value="Distance &amp;gt; 50m" style="text;html=1;strokeColor=none;fillColor=none;align=center;verticalAlign=middle;whiteSpace=wrap;rounded=0;fontSize=20;" vertex="1" parent="1">
                    <mxGeometry x="430" y="580" width="180" height="30" as="geometry"/>
                </mxCell>
            </root>
        </mxGraphModel>
    </diagram>
</mxfile>